<svg xmlns="http://www.w3.org/2000/svg" xmlns:xlink="http://www.w3.org/1999/xlink" width="1080" zoomAndPan="magnify" viewBox="0 0 810 809.999993" height="1080" preserveAspectRatio="xMidYMid meet" version="1.0"><defs><g/></defs><path fill="#85a4e1" d="M 49.023438 319.359375 C 43.070312 330.238281 43.070312 343.359375 43.070312 369.601562 L 43.070312 387.046875 C 43.070312 431.78125 43.070312 454.148438 56.503906 468.046875 C 69.941406 481.945312 91.566406 481.945312 134.8125 481.945312 L 180.6875 481.945312 C 223.933594 481.945312 245.5625 481.945312 258.996094 468.046875 C 272.433594 454.148438 272.433594 431.78125 272.433594 387.046875 L 272.433594 369.601562 C 272.433594 343.359375 272.433594 330.238281 266.476562 319.359375 C 260.523438 308.480469 249.644531 301.730469 227.890625 288.226562 L 204.953125 273.992188 C 181.957031 259.71875 170.457031 252.582031 157.75 252.582031 C 145.042969 252.582031 133.546875 259.71875 110.546875 273.992188 L 87.613281 288.226562 C 65.855469 301.730469 54.976562 308.480469 49.023438 319.359375 Z M 128.46875 406.226562 C 124.652344 403.398438 119.265625 404.199219 116.4375 408.015625 C 113.609375 411.832031 114.40625 417.21875 118.222656 420.046875 C 129.375 428.3125 143.015625 433.207031 157.75 433.207031 C 172.488281 433.207031 186.125 428.3125 197.277344 420.046875 C 201.09375 417.21875 201.894531 411.832031 199.066406 408.015625 C 196.238281 404.199219 190.851562 403.398438 187.035156 406.226562 C 178.679688 412.417969 168.597656 416.003906 157.75 416.003906 C 146.902344 416.003906 136.820312 412.417969 128.46875 406.226562 Z M 128.46875 406.226562 " fill-opacity="1" fill-rule="evenodd"/><g fill="#000000" fill-opacity="1"><g transform="translate(288.864568, 412.675898)"><g><path d="M 59.296875 -22.5 C 59.296875 -17.488281 58.050781 -13.21875 55.5625 -9.6875 C 53.070312 -6.15625 49.585938 -3.460938 45.109375 -1.609375 C 40.640625 0.234375 35.378906 1.15625 29.328125 1.15625 C 26.128906 1.15625 23.101562 1 20.25 0.6875 C 17.394531 0.382812 14.769531 -0.0507812 12.375 -0.625 C 9.988281 -1.207031 7.890625 -1.925781 6.078125 -2.78125 L 6.078125 -12.203125 C 8.960938 -11.003906 12.488281 -9.894531 16.65625 -8.875 C 20.820312 -7.851562 25.179688 -7.34375 29.734375 -7.34375 C 33.972656 -7.34375 37.554688 -7.910156 40.484375 -9.046875 C 43.421875 -10.191406 45.648438 -11.832031 47.171875 -13.96875 C 48.691406 -16.113281 49.453125 -18.6875 49.453125 -21.6875 C 49.453125 -24.582031 48.816406 -27.003906 47.546875 -28.953125 C 46.273438 -30.898438 44.164062 -32.671875 41.21875 -34.265625 C 38.269531 -35.867188 34.25 -37.578125 29.15625 -39.390625 C 25.570312 -40.660156 22.410156 -42.054688 19.671875 -43.578125 C 16.929688 -45.109375 14.632812 -46.835938 12.78125 -48.765625 C 10.925781 -50.691406 9.523438 -52.925781 8.578125 -55.46875 C 7.640625 -58.019531 7.171875 -60.929688 7.171875 -64.203125 C 7.171875 -68.722656 8.316406 -72.59375 10.609375 -75.8125 C 12.910156 -79.03125 16.09375 -81.492188 20.15625 -83.203125 C 24.226562 -84.921875 28.90625 -85.78125 34.1875 -85.78125 C 38.695312 -85.78125 42.867188 -85.351562 46.703125 -84.5 C 50.546875 -83.65625 54.066406 -82.519531 57.265625 -81.09375 L 54.203125 -72.65625 C 51.148438 -73.925781 47.914062 -74.984375 44.5 -75.828125 C 41.09375 -76.679688 37.578125 -77.109375 33.953125 -77.109375 C 30.328125 -77.109375 27.269531 -76.578125 24.78125 -75.515625 C 22.300781 -74.453125 20.40625 -72.957031 19.09375 -71.03125 C 17.78125 -69.101562 17.125 -66.8125 17.125 -64.15625 C 17.125 -61.1875 17.75 -58.71875 19 -56.75 C 20.25 -54.78125 22.253906 -53.035156 25.015625 -51.515625 C 27.773438 -49.992188 31.429688 -48.398438 35.984375 -46.734375 C 40.953125 -44.921875 45.171875 -43.003906 48.640625 -40.984375 C 52.117188 -38.960938 54.765625 -36.492188 56.578125 -33.578125 C 58.390625 -30.671875 59.296875 -26.976562 59.296875 -22.5 Z M 59.296875 -22.5 "/></g></g></g><g fill="#000000" fill-opacity="1"><g transform="translate(353.823565, 412.675898)"><g><path d="M 30.59375 -6.703125 C 32.175781 -6.703125 33.796875 -6.835938 35.453125 -7.109375 C 37.117188 -7.378906 38.472656 -7.707031 39.515625 -8.09375 L 39.515625 -0.640625 C 38.390625 -0.140625 36.832031 0.28125 34.84375 0.625 C 32.863281 0.976562 30.925781 1.15625 29.03125 1.15625 C 25.675781 1.15625 22.628906 0.566406 19.890625 -0.609375 C 17.160156 -1.785156 14.972656 -3.78125 13.328125 -6.59375 C 11.691406 -9.40625 10.875 -13.300781 10.875 -18.28125 L 10.875 -55.875 L 1.84375 -55.875 L 1.84375 -60.5625 L 10.9375 -64.328125 L 14.75 -78.09375 L 20.53125 -78.09375 L 20.53125 -63.40625 L 39.109375 -63.40625 L 39.109375 -55.875 L 20.53125 -55.875 L 20.53125 -18.5625 C 20.53125 -14.59375 21.445312 -11.625 23.28125 -9.65625 C 25.113281 -7.6875 27.550781 -6.703125 30.59375 -6.703125 Z M 30.59375 -6.703125 "/></g></g></g><g fill="#000000" fill-opacity="1"><g transform="translate(396.049801, 412.675898)"><g><path d="M 33.84375 -64.4375 C 41.394531 -64.4375 47.003906 -62.738281 50.671875 -59.34375 C 54.335938 -55.957031 56.171875 -50.539062 56.171875 -43.09375 L 56.171875 0 L 49.171875 0 L 47.3125 -9.375 L 46.859375 -9.375 C 45.078125 -7.0625 43.222656 -5.125 41.296875 -3.5625 C 39.367188 -2 37.140625 -0.820312 34.609375 -0.03125 C 32.085938 0.757812 29 1.15625 25.34375 1.15625 C 21.476562 1.15625 18.050781 0.484375 15.0625 -0.859375 C 12.070312 -2.210938 9.71875 -4.257812 8 -7 C 6.289062 -9.738281 5.4375 -13.207031 5.4375 -17.40625 C 5.4375 -23.726562 7.941406 -28.585938 12.953125 -31.984375 C 17.972656 -35.378906 25.609375 -37.234375 35.859375 -37.546875 L 46.796875 -38 L 46.796875 -41.875 C 46.796875 -47.351562 45.617188 -51.191406 43.265625 -53.390625 C 40.910156 -55.585938 37.59375 -56.6875 33.3125 -56.6875 C 30 -56.6875 26.835938 -56.203125 23.828125 -55.234375 C 20.828125 -54.273438 17.972656 -53.140625 15.265625 -51.828125 L 12.328125 -59.125 C 15.179688 -60.582031 18.457031 -61.832031 22.15625 -62.875 C 25.851562 -63.914062 29.75 -64.4375 33.84375 -64.4375 Z M 46.6875 -31.234375 L 37.015625 -30.828125 C 29.109375 -30.523438 23.535156 -29.234375 20.296875 -26.953125 C 17.054688 -24.679688 15.4375 -21.460938 15.4375 -17.296875 C 15.4375 -13.671875 16.535156 -10.988281 18.734375 -9.25 C 20.941406 -7.519531 23.859375 -6.65625 27.484375 -6.65625 C 33.109375 -6.65625 37.710938 -8.210938 41.296875 -11.328125 C 44.890625 -14.453125 46.6875 -19.140625 46.6875 -25.390625 Z M 46.6875 -31.234375 "/></g></g></g><g fill="#000000" fill-opacity="1"><g transform="translate(461.876454, 412.675898)"><g><path d="M 0.109375 -63.40625 L 10.40625 -63.40625 L 24.40625 -26.609375 C 25.21875 -24.453125 25.96875 -22.378906 26.65625 -20.390625 C 27.351562 -18.398438 27.972656 -16.5 28.515625 -14.6875 C 29.054688 -12.875 29.484375 -11.117188 29.796875 -9.421875 L 30.203125 -9.421875 C 30.734375 -11.359375 31.5 -13.894531 32.5 -17.03125 C 33.507812 -20.175781 34.59375 -23.390625 35.75 -26.671875 L 49 -63.40625 L 59.34375 -63.40625 L 31.75 9.3125 C 30.289062 13.207031 28.585938 16.597656 26.640625 19.484375 C 24.691406 22.378906 22.328125 24.609375 19.546875 26.171875 C 16.773438 27.734375 13.421875 28.515625 9.484375 28.515625 C 7.671875 28.515625 6.070312 28.40625 4.6875 28.1875 C 3.300781 27.976562 2.101562 27.742188 1.09375 27.484375 L 1.09375 19.78125 C 1.945312 19.976562 2.976562 20.148438 4.1875 20.296875 C 5.40625 20.453125 6.671875 20.53125 7.984375 20.53125 C 10.367188 20.53125 12.4375 20.078125 14.1875 19.171875 C 15.945312 18.265625 17.460938 16.941406 18.734375 15.203125 C 20.015625 13.472656 21.117188 11.414062 22.046875 9.03125 L 25.515625 0.109375 Z M 0.109375 -63.40625 "/></g></g></g><g fill="#000000" fill-opacity="1"><g transform="translate(521.224573, 412.675898)"><g><path d="M 58.65625 0 L 11.5625 0 L 11.5625 -84.578125 L 58.65625 -84.578125 L 58.65625 -75.890625 L 21.40625 -75.890625 L 21.40625 -48.53125 L 56.515625 -48.53125 L 56.515625 -39.96875 L 21.40625 -39.96875 L 21.40625 -8.671875 L 58.65625 -8.671875 Z M 58.65625 0 "/></g></g></g><g fill="#000000" fill-opacity="1"><g transform="translate(587.051215, 412.675898)"><g><path d="M 33.84375 -64.4375 C 41.394531 -64.4375 47.003906 -62.738281 50.671875 -59.34375 C 54.335938 -55.957031 56.171875 -50.539062 56.171875 -43.09375 L 56.171875 0 L 49.171875 0 L 47.3125 -9.375 L 46.859375 -9.375 C 45.078125 -7.0625 43.222656 -5.125 41.296875 -3.5625 C 39.367188 -2 37.140625 -0.820312 34.609375 -0.03125 C 32.085938 0.757812 29 1.15625 25.34375 1.15625 C 21.476562 1.15625 18.050781 0.484375 15.0625 -0.859375 C 12.070312 -2.210938 9.71875 -4.257812 8 -7 C 6.289062 -9.738281 5.4375 -13.207031 5.4375 -17.40625 C 5.4375 -23.726562 7.941406 -28.585938 12.953125 -31.984375 C 17.972656 -35.378906 25.609375 -37.234375 35.859375 -37.546875 L 46.796875 -38 L 46.796875 -41.875 C 46.796875 -47.351562 45.617188 -51.191406 43.265625 -53.390625 C 40.910156 -55.585938 37.59375 -56.6875 33.3125 -56.6875 C 30 -56.6875 26.835938 -56.203125 23.828125 -55.234375 C 20.828125 -54.273438 17.972656 -53.140625 15.265625 -51.828125 L 12.328125 -59.125 C 15.179688 -60.582031 18.457031 -61.832031 22.15625 -62.875 C 25.851562 -63.914062 29.75 -64.4375 33.84375 -64.4375 Z M 46.6875 -31.234375 L 37.015625 -30.828125 C 29.109375 -30.523438 23.535156 -29.234375 20.296875 -26.953125 C 17.054688 -24.679688 15.4375 -21.460938 15.4375 -17.296875 C 15.4375 -13.671875 16.535156 -10.988281 18.734375 -9.25 C 20.941406 -7.519531 23.859375 -6.65625 27.484375 -6.65625 C 33.109375 -6.65625 37.710938 -8.210938 41.296875 -11.328125 C 44.890625 -14.453125 46.6875 -19.140625 46.6875 -25.390625 Z M 46.6875 -31.234375 "/></g></g></g><g fill="#000000" fill-opacity="1"><g transform="translate(652.877856, 412.675898)"><g><path d="M 51.140625 -17.359375 C 51.140625 -13.304688 50.125 -9.898438 48.09375 -7.140625 C 46.070312 -4.390625 43.179688 -2.316406 39.421875 -0.921875 C 35.660156 0.460938 31.175781 1.15625 25.96875 1.15625 C 21.539062 1.15625 17.707031 0.804688 14.46875 0.109375 C 11.226562 -0.578125 8.390625 -1.554688 5.953125 -2.828125 L 5.953125 -11.6875 C 8.535156 -10.414062 11.617188 -9.257812 15.203125 -8.21875 C 18.796875 -7.175781 22.460938 -6.65625 26.203125 -6.65625 C 31.679688 -6.65625 35.65625 -7.539062 38.125 -9.3125 C 40.59375 -11.082031 41.828125 -13.492188 41.828125 -16.546875 C 41.828125 -18.273438 41.332031 -19.804688 40.34375 -21.140625 C 39.363281 -22.472656 37.71875 -23.765625 35.40625 -25.015625 C 33.09375 -26.265625 29.890625 -27.644531 25.796875 -29.15625 C 21.742188 -30.695312 18.242188 -32.226562 15.296875 -33.75 C 12.347656 -35.269531 10.070312 -37.128906 8.46875 -39.328125 C 6.875 -41.523438 6.078125 -44.378906 6.078125 -47.890625 C 6.078125 -53.253906 8.242188 -57.375 12.578125 -60.25 C 16.921875 -63.125 22.617188 -64.5625 29.671875 -64.5625 C 33.492188 -64.5625 37.070312 -64.179688 40.40625 -63.421875 C 43.738281 -62.671875 46.851562 -61.660156 49.75 -60.390625 L 46.515625 -52.703125 C 43.890625 -53.816406 41.09375 -54.757812 38.125 -55.53125 C 35.15625 -56.300781 32.125 -56.6875 29.03125 -56.6875 C 24.601562 -56.6875 21.203125 -55.953125 18.828125 -54.484375 C 16.453125 -53.023438 15.265625 -51.019531 15.265625 -48.46875 C 15.265625 -46.507812 15.8125 -44.890625 16.90625 -43.609375 C 18.007812 -42.335938 19.773438 -41.144531 22.203125 -40.03125 C 24.640625 -38.914062 27.84375 -37.601562 31.8125 -36.09375 C 35.789062 -34.625 39.222656 -33.109375 42.109375 -31.546875 C 45.003906 -29.992188 47.234375 -28.109375 48.796875 -25.890625 C 50.359375 -23.671875 51.140625 -20.828125 51.140625 -17.359375 Z M 51.140625 -17.359375 "/></g></g></g><g fill="#000000" fill-opacity="1"><g transform="translate(709.333755, 412.675898)"><g><path d="M 34.53125 -64.5625 C 39.925781 -64.5625 44.550781 -63.363281 48.40625 -60.96875 C 52.269531 -58.582031 55.222656 -55.238281 57.265625 -50.9375 C 59.304688 -46.632812 60.328125 -41.609375 60.328125 -35.859375 L 60.328125 -29.90625 L 16.546875 -29.90625 C 16.660156 -22.457031 18.507812 -16.785156 22.09375 -12.890625 C 25.6875 -9.003906 30.738281 -7.0625 37.25 -7.0625 C 41.257812 -7.0625 44.804688 -7.425781 47.890625 -8.15625 C 50.984375 -8.882812 54.1875 -9.960938 57.5 -11.390625 L 57.5 -2.953125 C 54.300781 -1.523438 51.128906 -0.484375 47.984375 0.171875 C 44.835938 0.828125 41.125 1.15625 36.84375 1.15625 C 30.75 1.15625 25.4375 -0.0859375 20.90625 -2.578125 C 16.375 -5.066406 12.851562 -8.71875 10.34375 -13.53125 C 7.84375 -18.351562 6.59375 -24.253906 6.59375 -31.234375 C 6.59375 -38.054688 7.738281 -43.960938 10.03125 -48.953125 C 12.332031 -53.953125 15.570312 -57.800781 19.75 -60.5 C 23.9375 -63.207031 28.863281 -64.5625 34.53125 -64.5625 Z M 34.421875 -56.6875 C 29.285156 -56.6875 25.191406 -55.007812 22.140625 -51.65625 C 19.097656 -48.300781 17.289062 -43.613281 16.71875 -37.59375 L 50.265625 -37.59375 C 50.222656 -41.375 49.632812 -44.703125 48.5 -47.578125 C 47.363281 -50.453125 45.640625 -52.6875 43.328125 -54.28125 C 41.015625 -55.882812 38.046875 -56.6875 34.421875 -56.6875 Z M 34.421875 -56.6875 "/></g></g></g></svg>