<?xml version="1.0" encoding="UTF-8"?>
<svg version="1.1" xmlns="http://www.w3.org/2000/svg" width="1024" height="1024">
<path d="M0 0 C337.92 0 675.84 0 1024 0 C1024 337.92 1024 675.84 1024 1024 C686.08 1024 348.16 1024 0 1024 C0 686.08 0 348.16 0 0 Z " fill="#FDFEFD" transform="translate(0,0)"/>
<path d="M0 0 C6.02140749 2.78259724 11.06739277 6.75913269 16.26660156 10.82910156 C18.13735063 12.27355849 20.00844741 13.71756521 21.87988281 15.16113281 C23.25394287 16.22581787 23.25394287 16.22581787 24.65576172 17.31201172 C34.02432603 24.55000296 43.55278471 31.57402743 53.14160156 38.51660156 C53.92172607 39.08209717 54.70185059 39.64759277 55.50561523 40.23022461 C56.2285376 40.75140869 56.95145996 41.27259277 57.69628906 41.80957031 C58.65897705 42.50409302 58.65897705 42.50409302 59.64111328 43.21264648 C61.27983343 44.39311498 61.27983343 44.39311498 63.26660156 45.32910156 C63.22019531 44.09933594 63.17378906 42.86957031 63.12597656 41.60253906 C63.0884412 39.96975097 63.05204294 38.33693645 63.01660156 36.70410156 C62.98308594 35.89585937 62.94957031 35.08761719 62.91503906 34.25488281 C62.8255092 28.74879605 63.59849898 25.69747827 67.26660156 21.32910156 C72.73086417 16.51534641 76.03226853 15.9649985 83.21972656 16.05957031 C88.29143661 16.50822159 91.27308866 17.98248832 94.65805054 21.9670105 C98.52760722 27.58872996 98.78441431 31.78018845 98.30566406 38.46191406 C98.22828185 40.41602206 98.1573667 42.37039484 98.09228516 44.32495117 C98.05544617 45.32895966 98.01860718 46.33296814 97.98065186 47.36740112 C96.79533374 64.11582787 96.79533374 64.11582787 102.87597656 78.91113281 C106.72026116 82.04704346 110.9940199 84.09818826 115.54003906 86.03466797 C120.37442856 88.32979092 124.42752388 91.69168312 128.64160156 94.95410156 C130.18845379 96.0956905 131.73777421 97.23394587 133.29003906 98.36816406 C136.33883753 100.6216238 139.32967747 102.93041854 142.26660156 105.32910156 C141.67493186 108.52010961 140.71931772 110.30380635 138.57128906 112.71972656 C138.02303467 113.34355225 137.47478027 113.96737793 136.90991211 114.61010742 C136.32636963 115.25987549 135.74282715 115.90964355 135.14160156 116.57910156 C134.55354736 117.24498291 133.96549316 117.91086426 133.35961914 118.59692383 C132.19523272 119.91463318 131.02806414 121.22989016 129.85791016 122.54248047 C127.87393966 124.76995762 125.91291469 127.01699555 123.95410156 129.26660156 C123.05866825 130.2877858 122.16303607 131.3087961 121.26660156 132.32910156 C116.76502549 131.42658658 113.76153374 128.90591994 110.20410156 126.14160156 C108.76992244 125.04561097 107.33499444 123.95059982 105.89941406 122.85644531 C104.76874512 121.99188721 104.76874512 121.99188721 103.61523438 121.10986328 C99.63786403 118.09417313 95.60589636 115.15326359 91.57910156 112.20410156 C85.21670957 107.5321849 78.93119461 102.78196276 72.69238281 97.94628906 C67.69034201 94.09902742 62.58688629 90.38736045 57.50073242 86.65258789 C48.7082178 80.19362333 39.98858056 73.63926068 31.27441406 67.07519531 C24.28763279 61.82059388 17.25661879 56.62873814 10.20288086 51.46435547 C4.81763877 47.51046149 -0.48000642 43.45648765 -5.73339844 39.32910156 C-8.61080778 40.67067177 -11.0118452 42.19649906 -13.49902344 44.16503906 C-14.21550049 44.72819824 -14.93197754 45.29135742 -15.67016602 45.87158203 C-16.43353271 46.47631348 -17.19689941 47.08104492 -17.98339844 47.70410156 C-23.7932251 52.26575294 -29.62291414 56.79021117 -35.54589844 61.20410156 C-41.74650017 65.82706309 -47.90232217 70.50564482 -54.04589844 75.20410156 C-61.49084675 80.89305781 -68.99488413 86.49145706 -76.55322266 92.02856445 C-82.64324782 96.50047006 -88.66634476 101.05570323 -94.67089844 105.64160156 C-95.9960144 106.65287109 -95.9960144 106.65287109 -97.34790039 107.68457031 C-100.49762322 110.08956475 -103.64712828 112.49479863 -106.79003906 114.90869141 C-108.49729595 116.21952503 -110.20849037 117.52501013 -111.92089844 118.82910156 C-112.82195312 119.52003906 -113.72300781 120.21097656 -114.65136719 120.92285156 C-116.73339844 122.32910156 -116.73339844 122.32910156 -118.73339844 122.32910156 C-118.73339844 162.25910156 -118.73339844 202.18910156 -118.73339844 243.32910156 C-84.41339844 243.32910156 -50.09339844 243.32910156 -14.73339844 243.32910156 C-47.52405563 267.92209446 -95.17128053 281.22929589 -135.73339844 278.32910156 C-142.2863418 277.23095938 -148.18860797 275.02562854 -153.73339844 271.32910156 C-154.10254192 269.19330406 -154.10254192 269.19330406 -154.09416199 266.4949646 C-154.09828598 265.47410263 -154.10240997 264.45324066 -154.10665894 263.40144348 C-154.09587311 262.27719467 -154.08508728 261.15294586 -154.07397461 259.99462891 C-154.07441269 258.81415482 -154.07485077 257.63368073 -154.07530212 256.41743469 C-154.07356714 253.17576663 -154.05849638 249.93448442 -154.03758025 246.69289351 C-154.0188577 243.30696754 -154.01706652 239.92103443 -154.01350403 236.5350647 C-154.0041705 230.12122616 -153.97953919 223.70754058 -153.94945556 217.29376948 C-153.91595209 209.99279533 -153.89943577 202.69181397 -153.88436925 195.39078212 C-153.85299065 180.37013663 -153.80020492 165.34963437 -153.73339844 150.32910156 C-154.20648438 150.69148926 -154.67957031 151.05387695 -155.16699219 151.42724609 C-157.35548083 153.10327431 -159.54443736 154.77869042 -161.73339844 156.45410156 C-162.4771875 157.02386719 -163.22097656 157.59363281 -163.98730469 158.18066406 C-165.48877163 159.32961268 -166.99138341 160.47706668 -168.49511719 161.62304688 C-169.97946424 162.75444055 -171.4612702 163.88917634 -172.94042969 165.02734375 C-173.98263672 165.82253418 -173.98263672 165.82253418 -175.04589844 166.63378906 C-175.66078125 167.1054248 -176.27566406 167.57706055 -176.90917969 168.06298828 C-182.0679857 171.64349792 -186.54695194 172.2208416 -192.73339844 171.32910156 C-198.96121965 168.94850096 -201.99029991 165.25419439 -204.73339844 159.32910156 C-206.41655424 154.27963417 -206.578152 150.09206553 -204.29589844 145.32910156 C-196.99515174 136.78188592 -187.72020209 130.54734432 -178.69433594 123.96582031 C-174.20343301 120.68654183 -169.76797166 117.34170683 -165.35839844 113.95410156 C-164.67656494 113.43058105 -163.99473145 112.90706055 -163.29223633 112.36767578 C-161.86795563 111.27354602 -160.44388848 110.17913821 -159.02001953 109.08447266 C-148.00295519 100.6269996 -136.95044208 92.21595399 -125.82421875 83.90258789 C-120.32801705 79.79008875 -114.87415254 75.62330456 -109.42089844 71.45410156 C-101.97084954 65.76144481 -94.46205416 60.15889372 -86.89819336 54.61865234 C-80.05776271 49.59642023 -73.31372084 44.45316283 -66.57592773 39.29443359 C-60.01202119 34.27829221 -53.37708008 29.36785733 -46.70629883 24.49511719 C-41.90460146 20.97289742 -37.18717225 17.36156755 -32.51147461 13.67382812 C-10.16863787 -3.93569252 -10.16863787 -3.93569252 0 0 Z " fill="#2B5A94" transform="translate(514.7333984375,274.6708984375)"/>
<path d="M0 0 C1 2 1 2 0.35546875 4.59765625 C-6.22170509 24.1092054 -13.77156855 43.10118267 -24 61 C-24.46132324 61.81275391 -24.92264648 62.62550781 -25.39794922 63.46289062 C-32.50416752 75.88974849 -40.38594961 87.57376445 -49 99 C-49.69270996 99.92232422 -49.69270996 99.92232422 -50.39941406 100.86328125 C-58.3082031 111.36177678 -66.52391948 121.5418859 -75.4453125 131.19921875 C-77.39852795 133.34058799 -79.29591876 135.50538912 -81.18359375 137.703125 C-85.54966772 142.70748975 -90.2326203 147.37879755 -94.9375 152.0625 C-96.22043945 153.35124023 -96.22043945 153.35124023 -97.52929688 154.66601562 C-102.52463821 159.6537363 -107.6362565 164.41331812 -113 169 C-114.06015422 169.93703954 -115.11882539 170.87576052 -116.17578125 171.81640625 C-147.26343428 199.17354092 -184.74935637 223.48528975 -224 237 C-225.26908455 237.4860537 -226.53727471 237.97444737 -227.8046875 238.46484375 C-240.36581654 243.20019002 -253.78965571 246.66694504 -267 249 C-268.15371094 249.20496094 -269.30742187 249.40992188 -270.49609375 249.62109375 C-298.50821601 253.84768868 -329.47442731 252.3198702 -353 235 C-364.98246082 225.78272245 -372.49780106 214.37676973 -377 200 C-377.24492187 199.2678125 -377.48984375 198.535625 -377.7421875 197.78125 C-382.98931828 179.092839 -377.07982744 158.88002503 -369 142 C-368.01 141.01 -368.01 141.01 -367 140 C-367.15855469 141.10085938 -367.31710937 142.20171875 -367.48046875 143.3359375 C-369.90964122 162.96779317 -368.03108124 180.63672943 -356.48046875 197.17578125 C-347.26017169 208.72919484 -333.26908577 214.57660647 -319 217 C-281.50842849 219.16567519 -247.43368107 209.68030462 -214 193 C-213.08460449 192.54512207 -212.16920898 192.09024414 -211.22607422 191.62158203 C-193.76984589 182.87739937 -177.07016354 173.09154655 -161 162 C-160.25991699 161.49065918 -159.51983398 160.98131836 -158.75732422 160.45654297 C-144.69030877 150.75448447 -131.08494987 140.76059162 -118.10546875 129.63671875 C-115.34747097 127.27889771 -112.52553631 125.01109619 -109.6875 122.75 C-102.83224169 117.16644178 -96.48686116 111.0481988 -90.08056641 104.96289062 C-88.06151977 103.05804024 -86.02516267 101.17413493 -83.98046875 99.296875 C-74.18433771 90.27958618 -65.01032324 80.79875801 -56 71 C-55.03029069 69.95541086 -54.06027281 68.91110802 -53.08984375 67.8671875 C-48.31263172 62.68387553 -43.76963456 57.3606034 -39.34375 51.875 C-37.24969172 49.30628851 -35.11801899 46.77931771 -32.96289062 44.26220703 C-20.98097711 30.25406338 -10.15563061 15.37783876 0 0 Z " fill="#46AAA1" transform="translate(698,348)"/>
<path d="M0 0 C1.27361389 -0.00761353 2.54722778 -0.01522705 3.85943604 -0.02307129 C6.53210259 -0.03380868 9.20387642 -0.03813918 11.87646484 -0.03222656 C15.2815002 -0.02630174 18.68512381 -0.05709112 22.08988571 -0.09734344 C25.37239615 -0.12953602 28.6548562 -0.12510414 31.9375 -0.125 C33.75492706 -0.1495929 33.75492706 -0.1495929 35.60906982 -0.17468262 C42.78417058 -0.11621161 47.69071507 0.69474886 53.203125 5.46875 C56.92405044 9.28269857 57.48107918 12.30584733 57.640625 17.46875 C57.43082529 22.94384563 56.77941646 26.89245854 52.7734375 30.8984375 C48.45166069 34.70418126 45.34294646 35.59080885 39.7253418 35.6105957 C38.60375168 35.61763016 37.48216156 35.62466461 36.32658386 35.63191223 C35.11408463 35.63607651 33.90158539 35.64024078 32.65234375 35.64453125 C30.09178864 35.66772845 27.53124174 35.69184574 24.97070312 35.71679688 C20.92846665 35.75317432 16.8863827 35.78294792 12.84399414 35.79467773 C8.9464046 35.81014719 5.04969976 35.85035251 1.15234375 35.89453125 C-0.05408279 35.89262283 -1.26050934 35.89071442 -2.50349426 35.88874817 C-8.87531268 35.98165084 -13.00187533 36.09014108 -17.796875 40.46875 C-21.21627163 44.42805137 -22.43279646 47.39905326 -22.1015625 52.5234375 C-21.48169986 56.48102208 -20.32430236 59.20134483 -17.18920898 61.80273438 C-10.52560606 66.3680147 -3.34090321 69.61842551 4.0163269 72.87496948 C6.23689665 73.85871129 8.45213829 74.85364381 10.66625977 75.85180664 C15.84860487 78.18637826 21.0356102 80.51018256 26.23388672 82.80908203 C39.4551281 88.65912186 49.5792665 94.73344092 57.203125 107.46875 C57.615625 108.12359375 58.028125 108.7784375 58.453125 109.453125 C59.5408009 112.37625397 59.41062549 113.56293048 58.203125 116.46875 C55.94760086 118.69231958 53.41699105 120.4661692 50.828125 122.28125 C50.10802246 122.80170898 49.38791992 123.32216797 48.64599609 123.85839844 C47.19112543 124.90865243 45.73232114 125.95348001 44.26953125 126.99267578 C42.41724392 128.31580069 40.58686094 129.66196012 38.765625 131.02734375 C31.47161876 136.46875 31.47161876 136.46875 29.203125 136.46875 C29.07357422 135.49035156 29.07357422 135.49035156 28.94140625 134.4921875 C28.80089844 133.61820313 28.66039062 132.74421875 28.515625 131.84375 C28.38800781 130.98523438 28.26039063 130.12671875 28.12890625 129.2421875 C26.45287889 124.22117727 24.07614608 121.54171437 19.55737305 118.953125 C16.2010986 117.31210484 12.81124901 115.78350296 9.390625 114.28125 C8.1386818 113.71693216 6.887469 113.15099136 5.63696289 112.58349609 C2.44956113 111.14064122 -0.74483672 109.71415676 -3.94213867 108.293396 C-7.9009315 106.53325219 -11.85386615 104.76033106 -15.80151367 102.9753418 C-17.76902911 102.08638612 -19.74029127 101.20565297 -21.71606445 100.33520508 C-36.63307046 93.621423 -48.38309517 84.99254832 -54.796875 69.46875 C-56.67216535 63.17549395 -57.15333406 57.07173059 -57.109375 50.53125 C-57.10373535 49.65025635 -57.0980957 48.7692627 -57.09228516 47.86157227 C-56.97563884 41.62907865 -56.457103 36.18071126 -53.796875 30.46875 C-53.38308594 29.55996094 -52.96929687 28.65117187 -52.54296875 27.71484375 C-46.78657345 16.18636814 -37.73712617 8.33821907 -25.796875 3.46875 C-17.17692803 0.69844701 -9.01045244 0.00150795 0 0 Z " fill="#2B5A91" transform="translate(500.796875,362.53125)"/>
<path d="M0 0 C3.71509263 1.23836421 5.28882864 3.22104936 8 6 C11.74413726 8.49609151 13.69845889 8.25109066 18.17431641 8.25537109 C18.90156921 8.25899155 19.62882202 8.262612 20.37811279 8.26634216 C21.95772675 8.27323518 23.53736452 8.27574177 25.11699295 8.27439499 C27.62343634 8.27342907 30.1294516 8.28638197 32.63583374 8.30337524 C39.7622337 8.34961087 46.88859198 8.37422717 54.01513672 8.38085938 C58.37598495 8.38589612 62.73639011 8.41026112 67.09708786 8.44618607 C68.75310979 8.45594009 70.40919304 8.45834017 72.06523514 8.45301437 C90.89790556 8.39532398 90.89790556 8.39532398 97.6859436 14.52157593 C100.92890509 18.00452246 101.35551538 21.39853645 101.5 26.0625 C101.21851715 32.15622333 100.13543068 35.9769604 95.625 40.25 C90.59909675 43.60060217 86.34854727 44.29824342 80.38671875 44.29052734 C79.63633835 44.29724457 78.88595795 44.30396179 78.11283875 44.31088257 C75.63765788 44.32984039 73.16274892 44.33378674 70.6875 44.3359375 C68.95458874 44.34237094 67.22167855 44.34909971 65.48876953 44.35610962 C61.85397835 44.36807971 58.21928215 44.37179112 54.58447266 44.37060547 C49.95926265 44.37040321 45.33467352 44.39760972 40.70960999 44.43214989 C37.12674245 44.45455821 33.54402048 44.45843865 29.96109009 44.45738602 C28.25808591 44.45972476 26.55507665 44.46844926 24.85214233 44.48405075 C7.32247723 44.62950859 -6.99503354 40.93684425 -20.234375 28.80078125 C-22.94578497 26.03538303 -25.01185408 23.33495445 -27 20 C-25.66546097 15.9963829 -23.12561641 14.90424332 -19.6875 12.8125 C-18.41322959 12.0208704 -17.1398076 11.22787367 -15.8671875 10.43359375 C-15.22233398 10.03253418 -14.57748047 9.63147461 -13.91308594 9.21826172 C-12.0801807 8.05105943 -10.29025254 6.840257 -8.5078125 5.59765625 C-7.45335937 4.86417969 -6.39890625 4.13070312 -5.3125 3.375 C-4.35988281 2.70210937 -3.40726563 2.02921875 -2.42578125 1.3359375 C-1.62527344 0.89507813 -0.82476563 0.45421875 0 0 Z " fill="#55BBAC" transform="translate(565,549)"/>
<path d="M0 0 C20.79 0 41.58 0 63 0 C63 4.62 63 9.24 63 14 C48.15 14 33.3 14 18 14 C18 20.6 18 27.2 18 34 C31.2 34 44.4 34 58 34 C58 38.62 58 43.24 58 48 C44.8 48 31.6 48 18 48 C18 54.93 18 61.86 18 69 C33.51 69 49.02 69 65 69 C65 73.62 65 78.24 65 83 C43.55 83 22.1 83 0 83 C0 55.61 0 28.22 0 0 Z " fill="#53B8AE" transform="translate(511,645)"/>
<path d="M0 0 C6.04534752 4.49957511 8.79614636 10.90797032 11.10546875 17.8359375 C11.10546875 22.4559375 11.10546875 27.0759375 11.10546875 31.8359375 C-5.06453125 31.8359375 -21.23453125 31.8359375 -37.89453125 31.8359375 C-33.7443084 40.74008038 -33.7443084 40.74008038 -25.89453125 44.8359375 C-19.22957076 45.78363585 -13.02765048 46.12296665 -7.26953125 42.2734375 C-6.69976563 41.79777344 -6.13 41.32210937 -5.54296875 40.83203125 C-3.89453125 39.8359375 -3.89453125 39.8359375 -1.91796875 39.96875 C0.55258544 41.02755894 1.98422631 42.35021611 3.85546875 44.2734375 C4.4690625 44.89089844 5.08265625 45.50835938 5.71484375 46.14453125 C7.10546875 47.8359375 7.10546875 47.8359375 7.10546875 49.8359375 C-0.27291567 57.43133323 -10.23386326 60.03471867 -20.51953125 60.2734375 C-30.59137343 59.95451298 -38.49764325 57.91467978 -45.89453125 50.8359375 C-52.92775436 42.84581329 -56.26366322 35.16601912 -56.10546875 24.51953125 C-55.31933193 14.51812394 -50.81507468 7.35060111 -43.64453125 0.5859375 C-30.5614754 -9.80104393 -13.65511129 -8.39015085 0 0 Z " fill="#5ABFB2" transform="translate(777.89453125,669.1640625)"/>
<path d="M0 0 C1.05396973 0.00136963 2.10793945 0.00273926 3.19384766 0.00415039 C12.81495457 0.19174653 20.81320073 2.18785036 29.4375 6.5 C28.78330901 11.56998019 26.5828591 15.91990777 24.4375 20.5 C23.8084375 20.30664062 23.179375 20.11328125 22.53125 19.9140625 C20.736829 19.36816937 18.93974867 18.83096993 17.140625 18.30078125 C14.98250285 17.66145316 12.83331042 16.99200663 10.6875 16.3125 C4.39436045 14.80985239 -3.66093045 13.96847803 -9.76171875 16.36328125 C-11.55931132 17.56022545 -13.03771586 18.97521586 -14.5625 20.5 C-14.63455511 22.18608966 -14.64636068 23.87500659 -14.625 25.5625 C-14.61597656 26.48160156 -14.60695312 27.40070312 -14.59765625 28.34765625 C-14.58605469 29.05792969 -14.57445312 29.76820313 -14.5625 30.5 C-10.10861457 32.42912802 -5.5481185 33.67402363 -0.875 34.9375 C0.74098958 35.38373754 2.35687587 35.8303493 3.97265625 36.27734375 C6.49796334 36.97229056 9.02456599 37.65356294 11.55859375 38.31640625 C20.04738644 40.63393936 26.27070883 44.29780624 31.4375 51.5 C33.46507507 57.58272522 33.27016195 64.26934249 30.9375 70.25 C27.27372779 77.47397489 20.987056 81.98348133 13.4375 84.5 C-1.61249316 87.75467644 -18.07016887 86.79162323 -31.3125 78.75 C-32.385 78.0075 -33.4575 77.265 -34.5625 76.5 C-33.90830901 71.43001981 -31.7078591 67.08009223 -29.5625 62.5 C-29.01464844 62.77714844 -28.46679688 63.05429687 -27.90234375 63.33984375 C-25.32571367 64.61740491 -22.73321335 65.85063943 -20.125 67.0625 C-19.19816406 67.49691406 -18.27132812 67.93132812 -17.31640625 68.37890625 C-12.13611233 70.48776349 -7.17011176 70.70881068 -1.625 70.75 C-0.93470703 70.770625 -0.24441406 70.79125 0.46679688 70.8125 C5.21932974 70.84853816 8.43103222 70.05554129 12.4375 67.5 C14.70598235 64.62997278 14.70598235 64.62997278 14.6875 61.125 C13.34158781 57.22185464 13.08106924 56.78994264 9.6875 54.875 C4.29293447 52.48174622 -1.3277867 51.33270189 -7.0625 50.0625 C-16.6261005 47.93012064 -25.00720892 45.90358904 -30.625 37.25 C-31.29789768 36.01435871 -31.94930053 34.7663282 -32.5625 33.5 C-32.8925 32.84 -33.2225 32.18 -33.5625 31.5 C-34.53600645 23.48943264 -33.36749888 17.05938219 -28.5625 10.5 C-20.2311542 2.0894589 -11.49092522 -0.06639525 0 0 Z " fill="#33407F" transform="translate(269.5625,643.5)"/>
<path d="M0 0 C4.96154787 4.01935494 7.3040743 9.16118613 8.625 15.3125 C8.70861164 16.80836442 8.74283054 18.30747091 8.73852539 19.80566406 C8.73844986 20.68627502 8.73837433 21.56688599 8.73829651 22.47418213 C8.73313522 23.41598328 8.72797394 24.35778442 8.72265625 25.328125 C8.7212413 26.29909119 8.71982635 27.27005737 8.71836853 28.27044678 C8.71277663 31.36782935 8.70022559 34.46513932 8.6875 37.5625 C8.68248395 39.66406146 8.67792123 41.76562404 8.67382812 43.8671875 C8.66280985 49.01565292 8.64555074 54.16406416 8.625 59.3125 C3.345 59.3125 -1.935 59.3125 -7.375 59.3125 C-7.375 57.0025 -7.375 54.6925 -7.375 52.3125 C-8.035 52.3125 -8.695 52.3125 -9.375 52.3125 C-9.705 53.3025 -10.035 54.2925 -10.375 55.3125 C-12.1171875 56.4453125 -12.1171875 56.4453125 -14.25 57.4375 C-14.94867187 57.77007813 -15.64734375 58.10265625 -16.3671875 58.4453125 C-23.12110543 61.36237433 -31.84220315 61.50893959 -38.96484375 59.62890625 C-44.44535397 57.0937758 -47.72452164 53.22048567 -50.6875 48 C-52.01275736 42.81944849 -52.00220526 38.1244263 -50.25 33.0625 C-46.61472592 27.73076468 -41.64949039 23.93562307 -35.375 22.3125 C-30.72223074 21.95405846 -26.10042359 22.02963869 -21.4375 22.125 C-20.18130859 22.13853516 -18.92511719 22.15207031 -17.63085938 22.16601562 C-14.54512721 22.20121409 -11.46028976 22.25045695 -8.375 22.3125 C-8.82748316 20.85193168 -9.28881053 19.39410111 -9.75390625 17.9375 C-10.00986572 17.12539063 -10.2658252 16.31328125 -10.52954102 15.4765625 C-11.60590231 12.72147544 -12.71900612 11.60025461 -15.375 10.3125 C-22.5953817 8.16174801 -29.4364021 8.96412632 -36.390625 11.578125 C-38.68366425 12.42673008 -40.96359251 12.92356331 -43.375 13.3125 C-44.07680531 11.9028653 -44.76093958 10.48442359 -45.4375 9.0625 C-45.82035156 8.27359375 -46.20320312 7.4846875 -46.59765625 6.671875 C-47.48105403 3.99060737 -47.54921734 2.86750996 -46.375 0.3125 C-34.10618003 -9.04974167 -12.40443558 -8.33777996 0 0 Z " fill="#56BBB0" transform="translate(638.375,668.6875)"/>
<path d="M0 0 C3.94892221 3.41255285 5.97102848 7.61223681 6.984375 12.71484375 C7.06844311 14.27195449 7.10218438 15.83222895 7.09790039 17.39160156 C7.09782486 18.31225403 7.09774933 19.23290649 7.09767151 20.18145752 C7.09251022 21.16700623 7.08734894 22.15255493 7.08203125 23.16796875 C7.0806163 24.18332703 7.07920135 25.1986853 7.07774353 26.24481201 C7.07215016 29.48485267 7.05959885 32.724824 7.046875 35.96484375 C7.04185914 38.16275942 7.03729639 40.36067617 7.03320312 42.55859375 C7.0221829 47.94403709 7.00492278 53.32942867 6.984375 58.71484375 C1.704375 58.71484375 -3.575625 58.71484375 -9.015625 58.71484375 C-9.510625 55.74484375 -9.510625 55.74484375 -10.015625 52.71484375 C-10.655 53.31296875 -11.294375 53.91109375 -11.953125 54.52734375 C-19.68630823 60.05104606 -28.23565058 60.81604979 -37.46875 59.31640625 C-43.75191983 57.67081415 -47.41701842 54.02707251 -51.015625 48.71484375 C-52.80938596 43.33356088 -53.15918923 36.95299755 -51.25 31.546875 C-47.98298549 26.33575679 -42.6953672 23.6574762 -37.015625 21.71484375 C-32.28207814 21.14777189 -27.64895177 21.23677028 -22.890625 21.40234375 C-21.02664063 21.43618164 -21.02664063 21.43618164 -19.125 21.47070312 C-16.08725115 21.52912137 -13.05210221 21.61098613 -10.015625 21.71484375 C-10.28629171 20.2542578 -10.57165614 18.79638986 -10.86328125 17.33984375 C-11.02062744 16.52773438 -11.17797363 15.715625 -11.34008789 14.87890625 C-11.88011445 12.45288755 -11.88011445 12.45288755 -14.453125 10.71484375 C-22.44889371 7.59454377 -30.0568762 7.87099141 -38.04296875 10.9609375 C-40.01402451 11.71423208 -41.96131782 12.2414799 -44.015625 12.71484375 C-44.88189899 11.11718272 -45.73328965 9.51144431 -46.578125 7.90234375 C-47.05378906 7.00902344 -47.52945312 6.11570312 -48.01953125 5.1953125 C-49.015625 2.71484375 -49.015625 2.71484375 -48.015625 -0.28515625 C-45.50390625 -1.63671875 -45.50390625 -1.63671875 -42.328125 -2.91015625 C-41.29300781 -3.33554687 -40.25789063 -3.7609375 -39.19140625 -4.19921875 C-26.38874333 -8.57700509 -11.13770336 -7.85400116 0 0 Z " fill="#323F7F" transform="translate(414.015625,669.28515625)"/>
<path d="M0 0 C5.61 0 11.22 0 17 0 C20.98187052 8.75810409 24.59976687 17.6627523 28.25 26.5625 C28.90613241 28.15955352 29.56238144 29.75655914 30.21875 31.35351562 C31.81384562 35.23512584 33.40735951 39.11738183 35 43 C38.29060694 39.24765268 39.77836592 34.92553514 41.5390625 30.33203125 C41.86538666 29.49661301 42.19171082 28.66119476 42.52792358 27.80046082 C43.56615505 25.14004903 44.59603556 22.47650817 45.625 19.8125 C46.66234564 17.13828818 47.70145215 14.46478737 48.74349976 11.79240417 C49.39091681 10.13091211 50.03538322 8.46826681 50.67666626 6.80439758 C52.88865813 1.11134187 52.88865813 1.11134187 54 0 C56.69654854 -0.07319621 59.36691458 -0.09242537 62.0625 -0.0625 C62.82111328 -0.05798828 63.57972656 -0.05347656 64.36132812 -0.04882812 C66.24091871 -0.0370068 68.12046899 -0.01907078 70 0 C69.29878725 4.99850127 67.30968175 9.37225197 65.3515625 13.98046875 C64.79875862 15.29717812 64.79875862 15.29717812 64.23478699 16.64048767 C63.03638629 19.49156804 61.83117721 22.33970169 60.625 25.1875 C59.79884056 27.1436196 58.97291357 29.0998374 58.1472168 31.05615234 C56.91370738 33.97849314 55.67979974 36.90065825 54.4438324 39.82196045 C52.12724008 45.30290028 49.84476646 50.79567174 47.60546875 56.30859375 C47.12319824 57.48462158 46.64092773 58.66064941 46.14404297 59.87231445 C45.28985369 61.95892312 44.44552536 64.04961167 43.61376953 66.14526367 C40.51825502 73.63839493 36.58786329 80.9800839 29.62109375 85.53125 C25.23095044 87.3119338 21.74778842 87.59489192 17.0625 87.5 C15.92264648 87.52320313 15.92264648 87.52320313 14.75976562 87.546875 C8.88627357 87.50674867 5.08181373 85.91380446 0 83 C0 78.85323868 0.4776945 77.68791935 2.5 74.25 C2.9640625 73.45078125 3.428125 72.6515625 3.90625 71.828125 C4.2671875 71.22484375 4.628125 70.6215625 5 70 C6.010625 70.495 7.02125 70.99 8.0625 71.5 C11.84060832 73.10283383 14.8717825 73.45869083 19 73 C21.89647562 71.7126775 23.50490873 70.67512446 25.375 68.125 C26.98378657 62.65512567 23.361523 56.83014698 21.2109375 51.88671875 C20.82942535 50.99950638 20.44791321 50.11229401 20.05484009 49.19819641 C18.83274569 46.3593247 17.60393685 43.52341533 16.375 40.6875 C15.57118116 38.82245237 14.76779158 36.95721966 13.96484375 35.09179688 C9.4558397 24.6163341 9.4558397 24.6163341 4.85253906 14.18212891 C4.52371735 13.44340042 4.19489563 12.70467194 3.85610962 11.94355774 C3.24618866 10.57646661 2.63171025 9.21139589 2.0118103 7.84880066 C0.75765881 5.03401077 0 3.12225708 0 0 Z " fill="#313F80" transform="translate(430,664)"/>
<path d="M0 0 C1.23532471 0.00918457 1.23532471 0.00918457 2.49560547 0.01855469 C9.48746437 0.19549486 16.59971582 0.97883664 22.8125 4.4375 C23.76953125 6.28125 23.76953125 6.28125 23.8125 8.4375 C23.03515625 10.796875 23.03515625 10.796875 21.875 13.1875 C21.30458984 14.38632812 21.30458984 14.38632812 20.72265625 15.609375 C20.42230469 16.21265625 20.12195313 16.8159375 19.8125 17.4375 C17.3734904 16.95917833 14.94380514 16.46819762 12.5234375 15.90234375 C4.48696951 14.08809094 -3.50098154 12.95993689 -11.1875 16.4375 C-11.60496608 19.31114791 -11.60496608 19.31114791 -11.1875 22.4375 C-6.30759514 26.48742104 0.18392268 26.77362883 6.24414062 27.72265625 C13.66029923 29.03237784 18.87919017 31.57380986 24.28125 36.84765625 C27.15077016 41.70095183 26.48535395 46.99287572 25.8125 52.4375 C23.35093012 57.73934283 19.24125579 61.91141135 13.86523438 64.30419922 C8.15506857 66.30067894 3.0328468 66.94695192 -3 66.875 C-3.87148682 66.86960205 -4.74297363 66.8642041 -5.64086914 66.85864258 C-14.87515552 66.64197983 -22.35707905 64.32626013 -30.1875 59.4375 C-28.87688409 55.20320244 -27.24393741 51.36342596 -25.1875 47.4375 C-22.04112761 48.12622207 -19.27271289 49.24483374 -16.3125 50.5 C-9.72450461 52.92622411 -3.13872154 53.3900748 3.8125 52.4375 C6.68929301 51.21660825 6.68929301 51.21660825 8.8125 49.4375 C9.23030879 46.81055578 9.23030879 46.81055578 8.8125 44.4375 C3.7563297 41.54825983 -1.039693 40.47395603 -6.6875 39.4375 C-15.65517103 37.79179987 -21.60908827 35.92851003 -27.1875 28.4375 C-29.16410525 24.48428949 -28.61532786 19.74633775 -28.1875 15.4375 C-25.23218677 9.17223594 -19.88984191 4.44833542 -13.52734375 1.7890625 C-8.99665898 0.18155174 -4.77627378 -0.06059525 0 0 Z " fill="#58BDB2" transform="translate(688.1875,662.5625)"/>
<path d="M0 0 C5.75339422 2.22472816 9.21949832 5.43899665 12 11 C12.52779267 17.2117137 12.74403643 22.758349 9 28 C5.49551232 31.51406278 2.39887941 33.89372864 -2.71452332 34.12025452 C-4.35666557 34.1169236 -4.35666557 34.1169236 -6.03198242 34.11352539 C-7.27304245 34.11344986 -8.51410248 34.11337433 -9.79277039 34.11329651 C-11.14700358 34.10818991 -12.50123637 34.10297391 -13.85546875 34.09765625 C-15.24123585 34.09579083 -16.62700361 34.09436751 -18.01277161 34.09336853 C-21.6574791 34.0895531 -25.30214665 34.07973113 -28.94683838 34.06866455 C-32.66702738 34.0584295 -36.38722285 34.05386642 -40.10742188 34.04882812 C-47.40496611 34.03810798 -54.70247746 34.02104325 -62 34 C-59.61222764 30.96548621 -57.36997946 28.3206393 -54.359375 25.90234375 C-50.97504193 23.02566064 -48.20307382 19.94011187 -45.390625 16.50390625 C-32.2650267 1.01482727 -20.96357037 -4.49073381 0 0 Z " fill="#399C91" transform="translate(654,494)"/>
<path d="M0 0 C5.28 0 10.56 0 16 0 C16 5.28 16 10.56 16 16 C21.61 16 27.22 16 33 16 C33 19.96 33 23.92 33 28 C27.39 28 21.78 28 16 28 C16.05108114 32.62795102 16.11403825 37.25255308 16.20751953 41.87939453 C16.23570954 43.45252644 16.25693398 45.02579947 16.27099609 46.59912109 C16.29245442 48.86368956 16.33911348 51.12656504 16.390625 53.390625 C16.39185364 54.09181458 16.39308228 54.79300415 16.39434814 55.51544189 C16.4946247 58.87373333 16.79918127 60.72948094 18.82324219 63.45605469 C21.95815764 65.67960845 24.23600555 65.33017495 28 65 C29.66954959 64.68142024 31.33693667 64.35086928 33 64 C33.6708712 65.6232687 34.33657029 67.24867578 35 68.875 C35.37125 69.77992188 35.7425 70.68484375 36.125 71.6171875 C37 74 37 74 37 76 C29.82746485 80.15154489 23.20568888 81.01663402 15 80 C9.04451991 78.29843426 5.43524823 75.05183563 2 70 C-0.03260506 65.16337418 -0.26588831 60.7112021 -0.1953125 55.5390625 C-0.1924826 54.74849457 -0.18965271 53.95792664 -0.18673706 53.1434021 C-0.17560955 50.63710916 -0.15051926 48.13118355 -0.125 45.625 C-0.11496058 43.91797394 -0.10583641 42.21094223 -0.09765625 40.50390625 C-0.07569463 36.3357976 -0.04121671 32.16796092 0 28 C-3.3 28 -6.6 28 -10 28 C-10 24.04 -10 20.08 -10 16 C-6.7 16 -3.4 16 0 16 C0 10.72 0 5.44 0 0 Z " fill="#303D7E" transform="translate(318,649)"/>
<path d="M0 0 C4.21202085 1.43208709 7.19344298 3.50013578 10.625 6.3125 C11.56601562 7.07175781 12.50703125 7.83101563 13.4765625 8.61328125 C16.81851344 11.77416674 18.7106062 14.25157915 19.46875 18.83203125 C19.54206474 25.82442438 18.91688403 30.7953594 14 36 C9.55387589 40.06502776 4.68295421 40.73015661 -1.21484375 40.52734375 C-5.98595072 39.62397848 -9.30010445 37.01120212 -13 34 C-14.3308382 32.99668177 -15.66344436 31.9956891 -17 31 C-16.34483207 27.14281415 -14.52318026 24.39841599 -12.4375 21.125 C-9.34015359 16.20924364 -6.36810581 11.24061284 -3.5 6.1875 C-3.14993896 5.57084473 -2.79987793 4.95418945 -2.43920898 4.31884766 C-1.62437482 2.88022976 -0.81190731 1.44027174 0 0 Z " fill="#2D75A8" transform="translate(690,406)"/>
<path d="M0 0 C1.82912324 2.74368486 2.36143541 3.96543407 2.96484375 7.0546875 C3.12533203 7.83457031 3.28582031 8.61445313 3.45117188 9.41796875 C3.77375562 11.04772917 4.09409188 12.67793616 4.41210938 14.30859375 C4.57388672 15.09105469 4.73566406 15.87351562 4.90234375 16.6796875 C5.04148193 17.38851074 5.18062012 18.09733398 5.32397461 18.82763672 C6.19873805 21.63863171 7.20478524 23.65261848 9 26 C11.660239 27.22498359 11.660239 27.22498359 14.76171875 27.80078125 C16.43911133 28.18266602 16.43911133 28.18266602 18.15039062 28.57226562 C19.31763672 28.81654297 20.48488281 29.06082031 21.6875 29.3125 C22.86634766 29.57611328 24.04519531 29.83972656 25.25976562 30.11132812 C28.16965447 30.75927908 31.08238622 31.38795087 34 32 C31.61643877 34.38356123 30.36027726 34.52564805 27.09765625 35.18359375 C25.63875977 35.49200195 25.63875977 35.49200195 24.15039062 35.80664062 C22.09631052 36.2262914 20.04162133 36.64297209 17.98632812 37.05664062 C17.01244141 37.26353516 16.03855469 37.47042969 15.03515625 37.68359375 C14.1419165 37.86462646 13.24867676 38.04565918 12.32836914 38.23217773 C9.73764209 39.08651732 8.64871834 39.84817422 7 42 C6.16922352 44.6011898 5.47985354 47.09832207 4.875 49.75 C4.62169922 50.78640625 4.62169922 50.78640625 4.36328125 51.84375 C3.32099023 56.20988246 2.57103021 60.54829508 2 65 C1.34 65 0.68 65 0 65 C-0.18175781 64.18917969 -0.36351562 63.37835938 -0.55078125 62.54296875 C-1.07561545 60.23100679 -1.61004382 57.92120885 -2.15234375 55.61328125 C-2.68463934 53.3442793 -3.20023493 51.07122668 -3.69140625 48.79296875 C-3.91699219 47.83003906 -4.14257812 46.86710937 -4.375 45.875 C-4.56835938 45.00617188 -4.76171875 44.13734375 -4.9609375 43.2421875 C-6.37485939 40.1910929 -8.0411225 39.53959333 -11 38 C-13.68589173 37.15650013 -13.68589173 37.15650013 -16.51953125 36.61328125 C-17.54111328 36.39736328 -18.56269531 36.18144531 -19.61523438 35.95898438 C-20.67033203 35.74564453 -21.72542969 35.53230469 -22.8125 35.3125 C-23.88693359 35.08755859 -24.96136719 34.86261719 -26.06835938 34.63085938 C-28.71063188 34.07891801 -31.35437716 33.53560909 -34 33 C-31.22511485 31.49701894 -28.71790672 30.59134997 -25.62890625 29.96484375 C-24.80712891 29.79533203 -23.98535156 29.62582031 -23.13867188 29.45117188 C-22.28853516 29.28166016 -21.43839844 29.11214844 -20.5625 28.9375 C-19.71623047 28.76412109 -18.86996094 28.59074219 -17.99804688 28.41210938 C-15.66649245 27.93557397 -13.33366177 27.46609021 -11 27 C-9.97777344 26.79503906 -8.95554687 26.59007812 -7.90234375 26.37890625 C-7.27457031 26.25386719 -6.64679687 26.12882812 -6 26 C-2.92445229 13.01732042 -2.92445229 13.01732042 0 0 Z " fill="#F9B639" transform="translate(711,296)"/>
<path d="M0 0 C3.55688461 2.71000732 5.77370922 5.93699015 7.625 10 C7.625 10.99 7.625 11.98 7.625 13 C-3.265 13 -14.155 13 -25.375 13 C-24.3478108 6.83686481 -23.62066181 5.24566181 -19.375 1 C-13.22355591 -2.0396583 -6.49862917 -1.92551975 0 0 Z " fill="#F9FDFB" transform="translate(765.375,678)"/>
<path d="M0 0 C0.97904297 0.01804687 1.95808594 0.03609375 2.96679688 0.0546875 C5.37470771 0.10167113 7.78059335 0.16734306 10.1875 0.25 C10.4705491 7.67047654 10.4705491 7.67047654 9.19921875 10.2734375 C4.71222111 14.85308701 2.24807979 16.55136636 -4.1875 16.625 C-5.86972656 16.66753906 -5.86972656 16.66753906 -7.5859375 16.7109375 C-11.48597952 16.15378864 -13.11003501 15.08162692 -15.8125 12.25 C-16.4765625 10.25 -16.4765625 10.25 -16.4375 8.25 C-16.45039062 7.59 -16.46328125 6.93 -16.4765625 6.25 C-13.98527951 -1.25315818 -6.44880882 -0.22521025 0 0 Z " fill="#F9FDFA" transform="translate(619.8125,700.75)"/>
<path d="M0 0 C1.46856445 0.03383789 1.46856445 0.03383789 2.96679688 0.06835938 C5.37527455 0.12710273 7.78059078 0.20917871 10.1875 0.3125 C10.24848684 1.75077303 10.29200026 3.18979413 10.328125 4.62890625 C10.36728027 5.83075562 10.36728027 5.83075562 10.40722656 7.05688477 C10.1875 9.3125 10.1875 9.3125 7.9375 12.25 C2.10241717 16.62631212 -2.60334786 17.0280751 -9.8125 16.3125 C-12.93187969 14.93997293 -14.3022715 14.332957 -15.8125 11.3125 C-16.32131681 7.49637392 -16.17439495 5.83736244 -13.96484375 2.6328125 C-9.38614136 -0.7373848 -5.52533191 -0.24119985 0 0 Z " fill="#F7F8FA" transform="translate(393.8125,700.6875)"/>
<path d="M0 0 C0.66 0.33 1.32 0.66 2 1 C-6.96054318 11.04432378 -16.42975761 20.53933411 -26 30 C-26.66 29.67 -27.32 29.34 -28 29 C-27.58226318 28.5875 -27.16452637 28.175 -26.73413086 27.75 C-16.77886172 17.98649299 -16.77886172 17.98649299 -7.4296875 7.65234375 C-5.09556651 4.95471212 -2.5523859 2.49013258 0 0 Z " fill="#3A9E91" transform="translate(645,416)"/>
<path d="M0 0 C0.66 0.33 1.32 0.66 2 1 C-4.18883519 6.94942184 -10.19619659 12.09551107 -17.58984375 16.52734375 C-19.84027798 17.90240648 -21.91920601 19.38267753 -24 21 C-24.66 20.67 -25.32 20.34 -26 20 C-25.29822632 19.46427368 -25.29822632 19.46427368 -24.58227539 18.91772461 C-12.25180506 9.50987036 -12.25180506 9.50987036 0 0 Z " fill="#3081B0" transform="translate(493,280)"/>
<path d="M0 0 C0.66 0.66 1.32 1.32 2 2 C-0.2375915 4.32478781 -2.49204232 6.63250154 -4.75 8.9375 C-5.70132813 9.9265332 -5.70132813 9.9265332 -6.671875 10.93554688 C-7.6 11.87817383 -7.6 11.87817383 -8.546875 12.83984375 C-9.39523926 13.71177368 -9.39523926 13.71177368 -10.26074219 14.60131836 C-12.17525154 16.14093431 -13.59987554 16.59308235 -16 17 C-11.01595832 10.96668638 -5.58084697 5.4815829 0 0 Z " fill="#46AC9E" transform="translate(618,502)"/>
<path d="M0 0 C0.66 0 1.32 0 2 0 C0.62815653 4.06498881 -1.22068459 6.67396561 -4.125 9.8125 C-4.84945312 10.60269531 -5.57390625 11.39289063 -6.3203125 12.20703125 C-6.87460937 12.79871094 -7.42890625 13.39039063 -8 14 C-8.99 13.67 -9.98 13.34 -11 13 C-9.21526335 10.82727712 -7.42280648 8.66186229 -5.625 6.5 C-5.11710938 5.87996094 -4.60921875 5.25992187 -4.0859375 4.62109375 C-2.76792394 3.04294593 -1.38787368 1.51707513 0 0 Z " fill="#52B6A3" transform="translate(676,379)"/>
<path d="M0 0 C1 2 1 2 0.22265625 4.8203125 C-0.16019531 5.91085937 -0.54304687 7.00140625 -0.9375 8.125 C-1.31777344 9.22070312 -1.69804688 10.31640625 -2.08984375 11.4453125 C-2.39019531 12.28835938 -2.69054687 13.13140625 -3 14 C-3.66 13.34 -4.32 12.68 -5 12 C-6.32 13.65 -7.64 15.3 -9 17 C-9.66 16.67 -10.32 16.34 -11 16 C-10.37351562 15.09636719 -9.74703125 14.19273437 -9.1015625 13.26171875 C-8.27602781 12.0703221 -7.45050774 10.87891532 -6.625 9.6875 C-6.2125 9.09259766 -5.8 8.49769531 -5.375 7.88476562 C-3.56307623 5.26916598 -1.76504945 2.64757418 0 0 Z " fill="#64C2B2" transform="translate(698,348)"/>
<path d="M0 0 C0 3 0 3 -1.4609375 4.82421875 C-2.09257812 5.43910156 -2.72421875 6.05398438 -3.375 6.6875 C-4.00148438 7.31011719 -4.62796875 7.93273437 -5.2734375 8.57421875 C-7 10 -7 10 -9 10 C-9 10.66 -9 11.32 -9 12 C-9.66 11.67 -10.32 11.34 -11 11 C-9.92173635 9.72486237 -8.83714481 8.45507431 -7.75 7.1875 C-7.14671875 6.47980469 -6.5434375 5.77210938 -5.921875 5.04296875 C-4.07629602 3.08110329 -2.20054668 1.54330375 0 0 Z " fill="#326A9A" transform="translate(463,373)"/>
<path d="M0 0 C1.12758089 3.38274266 0.81750262 4.76778223 0.0625 8.1875 C-0.13214844 9.08855469 -0.32679688 9.98960937 -0.52734375 10.91796875 C-0.68332031 11.60503906 -0.83929688 12.29210937 -1 13 C-1.99 13.33 -2.98 13.66 -4 14 C-3.53328373 8.58609132 -2.75702189 4.79482068 0 0 Z " fill="#42A39A" transform="translate(330,488)"/>
<path d="M0 0 C0.66 0.33 1.32 0.66 2 1 C-2.6463321 5.97217876 -6.89180978 9.94590489 -13 13 C-13 12.34 -13 11.68 -13 11 C-11.25998065 9.44038399 -9.45696803 7.95050425 -7.625 6.5 C-3.68517459 3.39240862 -3.68517459 3.39240862 0 0 Z " fill="#36938C" transform="translate(596,464)"/>
<path d="M0 0 C0.99 0.33 1.98 0.66 3 1 C0.69 3.31 -1.62 5.62 -4 8 C-4.33 7.01 -4.66 6.02 -5 5 C-3.35 3.35 -1.7 1.7 0 0 Z " fill="#2D4382" transform="translate(316,414)"/>
<path d="M0 0 C0.66 0 1.32 0 2 0 C1.46930939 3.82097239 0.50298434 6.06171403 -2 9 C-3 6 -3 6 -1.5625 2.8125 C-1.046875 1.884375 -0.53125 0.95625 0 0 Z " fill="#63C9B8" transform="translate(661,714)"/>
<path d="M0 0 C0.66 0.33 1.32 0.66 2 1 C0.38405168 3.04119788 -1.2856382 5.04072937 -3 7 C-3.66 7 -4.32 7 -5 7 C-3.70700306 4.11562221 -2.34058637 2.12780579 0 0 Z " fill="#2F988A" transform="translate(626,494)"/>
<path d="M0 0 C0.66 0 1.32 0 2 0 C2.33 2.64 2.66 5.28 3 8 C2.01 8 1.02 8 0 8 C0 5.36 0 2.72 0 0 Z " fill="#536394" transform="translate(309,423)"/>
<path d="M0 0 C-0.99 0.33 -1.98 0.66 -3 1 C-3.33 1.66 -3.66 2.32 -4 3 C-6.31 2.67 -8.62 2.34 -11 2 C-7.00042393 -0.06874624 -4.43559483 -1.37656391 0 0 Z " fill="#F9BF61" transform="translate(688,327)"/>
<path d="M0 0 C2.97 0.495 2.97 0.495 6 1 C4.68 2.32 3.36 3.64 2 5 C1.34 4.67 0.68 4.34 0 4 C0 2.68 0 1.36 0 0 Z " fill="#3A4892" transform="translate(458,744)"/>
</svg>
